<?xml version='1.0' encoding='UTF-8'?>
<svg xmlns:xlink="http://www.w3.org/1999/xlink" version="1.1" xmlns="http://www.w3.org/2000/svg" height="256" width="256" viewBox="0 0 256 256">
    <!-- Generator: Sketch 63.1 (92452) - https://sketch.com -->
    <title>女神节icon</title>
    <desc>Created with Sketch.</desc>
    <g transform="matrix(0.25,0,0,0.25,0,0)">
        <g stroke-width="1" fill-rule="evenodd" id="页面-1" stroke="none" fill="none">
            <g id="皇冠">
                <rect x="0" y="0" id="矩形" height="1024" width="1024"/>
                <path stroke-width="20" id="Fill-1" d="M863.432496,334.792659 C851.319117,362.540767 857.184206,390.789512 873.427631,411.028055 L865.678474,443.281902 C849.945983,509.280855 791.114131,555.776245 723.287722,555.776245 C646.967045,555.776245 583.515504,497.031211 577.405592,421.030156 L570.167368,329.669112 C605.379195,306.288269 626.114576,262.924528 615.991708,215.672856 C607.252618,175.174466 574.531591,142.430634 533.933675,133.930446 C464.233843,119.188265 402.794102,172.181292 402.794102,239.543685 C402.794102,277.176723 422.028616,310.29337 451.258264,329.669112 L444.009396,421.030156 C438.016573,497.276204 374.565032,555.904067 298.244355,555.904067 C230.545679,555.904067 171.586094,509.280855 155.853603,443.409724 L148.104446,411.155878 C164.347871,390.906683 170.21296,362.540767 158.110225,334.90983 C147.359335,310.165548 122.504554,292.792357 95.4037948,291.546089 C46.0561438,289.0429 10.2162947,332.289471 18.0825401,377.783585 C22.4574074,403.039157 39.2011207,423.032707 60.7987013,432.53417 L256.028483,895.996804 L720.296633,895.996804 L817.5,895.996804 L960.488553,432.53417 C982.224512,422.904884 998.957581,402.911334 1003.19407,377.783585 C1011.44352,332.161649 975.593022,288.92573 926.138926,291.418266 C899.155256,292.792357 874.428209,310.048378 863.432496,334.792659 Z" stroke="#263238" fill="#F9C85D"/>
                <path stroke-width="20" id="Fill-3" d="M17,364 C17,404.942754 50.1770135,438 91.0053356,438 C131.822987,438 165,404.814708 165,364 C165,323.174621 131.822987,290 91.0053356,290 C50.1770135,290 17,323.174621 17,364" stroke="#263238" fill="#F9C85D"/>
                <path stroke-width="20" id="Fill-7" d="M402,237.249154 C402,297.61822 450.863977,346.492981 511.206569,346.492981 C571.432032,346.492981 620.413138,297.61822 620.413138,237.249154 C620.413138,198.24948 599.542928,162.243226 565.809853,142.620883 C532.076779,123.126372 490.474784,123.126372 456.603284,142.620883 C422.742433,162.126046 402,198.121647 402,237.249154 M857.556225,364.251095 C857.556225,404.997818 890.543934,438 931.272788,438 C972.001642,438 1005,404.997818 1005,364.251095 C1005,323.49372 972.001642,290.502191 931.272788,290.502191 C890.543934,290.502191 857.556225,323.49372 857.556225,364.251095" stroke="#263238" fill="#F9C85D"/>
            </g>
        </g>
    </g>
</svg>
